<svg xmlns="http://www.w3.org/2000/svg" width="1440" height="253" viewBox="0 0 1440 253">
    <g fill="#3ECF8E" fill-rule="evenodd">
        <path fill-opacity=".6" d="M-6 146.972c30.752-41.173 78.766-61.759 144.04-61.759 97.913 0 110.236 52.446 233.7 52.446 123.465 0 91.342 57.548 164.922 57.548s142.527-66.778 314.172-66.778c171.645 0 291.155 66.778 365.754 66.778 74.599 0 127.797-96.124 176.872-107.954 32.717-7.887 55.563-1.432 468.54 219.366L1446.57 253H-6V146.972z"/>
        <path fill-opacity=".2" d="M-5.965 74.152C-14.035 74.152 80.725 0 178.642 0S347.338 150.895 469.83 150.895c122.491 0 129.312-119.845 300.966-119.845 68.903 0 88.574 33.827 183.99 33.827 95.416 0 22.162 57.321 180.493 57.321 158.332 0 155.038-104.28 264.995-104.28 15.51 0 33.086 1.888 52.726 5.665l-2.287 50.57L1446.678 253H-10l4.035-178.848z"/>
        <path fill-opacity=".4" d="M1449 253H-3.982L-6 89.416c58.673-14.083 108.023-21.125 148.048-21.125 97.94 0 169.35 73.037 291.87 73.037 122.52 0 133.345-41.347 305.038-41.347 171.694 0 110.04 25.96 268.409 25.96 158.368 0 172.96-84.941 282.942-84.941 44.754 0 97.529 11.663 158.324 34.988L1449 253z"/>
    </g>
</svg>
